<svg xmlns="http://www.w3.org/2000/svg" xmlns:v="https://svgstorm.com"
viewBox = "0 0 374 387"
width="374"
height="387">
<g fill="None" fill-opacity="0.0" stroke="#0B0B0B" stroke-opacity="1.00" stroke-width="0.3"><path d="
M 0.00 387.00 
L 374.00 387.00
L 374.00 0.00
L 0.00 0.00
L 0.00 387.00
M 186.00 5.00 
C 206.04 7.24 228.96 16.32 240.00 34.00
C 232.00 37.74 223.21 47.29 214.30 41.70 C 205.40 36.11 196.54 31.72 186.00 31.00
C 179.68 30.12 172.69 29.47 166.00 30.00
C 157.67 30.66 149.35 33.78 141.97 36.97 C 134.59 40.17 130.21 44.58 124.25 50.25 C 118.29 55.91 114.61 61.12 112.02 69.02 C 109.44 76.93 105.99 84.61 106.00 94.00 C 106.01 103.39 105.74 115.09 106.00 125.00 C 106.26 134.91 105.31 145.85 106.00 156.00 C 106.69 166.15 104.42 176.74 106.00 187.00 C 107.58 197.26 104.77 208.44 96.25 201.75 C 87.72 195.06 81.37 197.68 80.00 187.00 C 78.64 176.32 80.63 166.54 80.00 156.00 C 79.37 145.46 80.32 135.55 80.00 125.00 C 79.68 114.45 80.24 103.58 80.00 93.00
C 32.37 98.49 12.74 170.19 44.25 201.75 C 75.76 233.30 115.68 244.15 150.00 272.00
C 146.74 277.64 139.26 281.95 133.00 284.00
C 129.83 285.23 129.72 286.09 126.00 285.00
C 111.81 280.83 100.48 268.20 86.92 262.08 C 73.37 255.95 61.66 244.30 48.00 238.00
C 26.05 283.38 81.18 336.17 125.00 323.00 C 168.82 309.83 195.97 277.80 237.00 263.00
C 237.00 265.00 237.00 267.00 237.00 269.00
C 238.47 274.27 240.64 281.41 238.00 287.00
C 233.76 295.96 222.32 298.04 214.25 303.25 C 206.19 308.47 198.47 312.86 188.92 317.92 C 179.37 322.98 174.31 328.26 163.25 333.25 C 152.20 338.24 158.26 346.16 168.25 351.75 C 178.24 357.35 187.68 359.90 199.00 361.00 C 210.32 362.09 222.06 357.07 231.25 352.25 C 240.43 347.42 247.35 343.95 254.25 335.25 C 261.14 326.55 264.24 319.28 266.98 307.98 C 269.71 296.67 268.90 281.74 269.00 269.00 C 269.10 256.26 268.69 242.16 269.00 229.00 C 269.31 215.84 268.29 202.46 269.00 189.00 C 269.71 175.54 285.22 193.88 292.00 195.00
C 296.54 228.68 292.76 264.48 294.00 299.00
C 316.76 293.15 339.42 271.47 343.00 247.00
C 344.66 237.18 344.56 225.79 343.00 216.00
C 341.27 205.14 336.29 195.54 329.00 187.00
C 326.80 184.80 324.22 182.05 322.00 180.00
C 314.75 174.28 305.95 168.96 298.25 163.75 C 290.55 158.54 280.60 153.50 273.32 148.68 C 266.05 143.86 254.70 137.09 248.75 132.25 C 242.81 127.41 224.59 122.75 229.76 114.75 C 234.92 106.75 248.90 102.97 256.70 108.30 C 264.50 113.64 274.03 118.83 282.23 123.77 C 290.43 128.72 297.87 134.55 306.70 139.30 C 315.52 144.06 323.60 151.91 333.00 154.00
C 345.82 119.46 323.02 78.04 288.00 69.00
C 285.82 68.46 282.48 66.30 281.00 66.00
C 271.63 64.90 260.42 66.23 252.00 68.00 C 243.58 69.76 236.80 73.72 230.10 78.10 C 223.40 82.48 216.89 85.59 209.92 89.92 C 202.96 94.25 197.68 98.08 190.25 102.25 C 182.83 106.43 177.92 108.95 170.30 114.30 C 162.68 119.65 159.51 119.84 150.75 126.75 C 142.00 133.67 138.71 125.52 139.00 115.00 C 139.29 104.48 141.50 99.29 150.08 95.08 C 158.65 90.87 162.24 86.60 169.30 82.30 C 176.36 77.99 182.96 75.29 189.70 70.70 C 196.44 66.10 202.40 62.73 209.25 58.25 C 216.09 53.76 221.97 50.03 229.68 46.68 C 237.39 43.32 245.09 39.88 254.22 39.22 C 263.35 38.56 275.87 38.78 285.00 40.00
C 288.03 40.40 290.76 42.32 293.00 43.00
C 307.02 45.85 317.92 52.71 329.23 61.77 C 340.54 70.83 345.68 80.57 353.26 92.74 C 360.84 104.92 361.39 124.33 362.00 139.00 C 362.61 153.67 345.84 167.42 353.92 180.08 C 362.00 192.74 367.59 204.46 369.00 220.00
C 370.35 225.82 371.15 231.59 370.00 238.00
C 368.60 258.64 360.71 275.90 348.00 292.00
C 345.35 295.35 342.18 298.28 339.00 301.00
C 330.73 308.07 322.74 313.71 312.97 317.97 C 303.21 322.24 289.30 322.70 285.08 333.08 C 280.85 343.45 274.73 350.07 266.75 357.75 C 258.78 365.43 251.48 370.36 241.75 375.75 C 232.03 381.15 217.62 384.00 206.00 384.00
C 202.86 384.30 199.08 384.30 196.00 384.00
C 186.06 384.00 177.27 381.32 168.75 378.25 C 160.24 375.17 155.14 370.64 147.77 366.23 C 140.40 361.82 138.36 351.86 132.00 348.00
C 128.74 346.68 124.17 348.75 121.00 349.00
C 112.45 349.68 103.14 349.14 95.00 348.00
C 92.04 347.59 90.07 346.59 88.00 346.00
C 74.83 343.90 63.86 336.76 53.00 329.00
C 48.05 325.46 42.50 319.90 39.00 315.00
C 28.54 300.36 20.37 284.44 20.00 266.00
C 19.42 261.22 19.55 255.69 20.00 251.00
C 20.00 237.64 30.93 224.56 21.70 214.30 C 12.46 204.05 9.35 193.80 6.00 181.00 C 2.66 168.20 1.91 149.58 6.00 137.00 C 10.09 124.42 13.84 114.03 21.77 103.77 C 29.70 93.51 36.10 86.94 46.75 79.75 C 57.40 72.56 71.18 68.33 84.00 67.00
C 95.74 34.66 126.90 8.12 161.00 5.00
C 169.32 2.84 177.74 3.08 186.00 5.00
M 199.00 140.00 
C 212.00 142.29 222.81 155.53 224.00 169.00
C 224.59 171.90 224.45 177.06 226.00 180.00
C 231.59 187.44 236.57 193.03 234.00 204.00 C 231.43 214.97 237.03 225.79 233.07 236.07 C 229.11 246.36 216.39 242.55 207.00 243.00 C 197.61 243.45 183.52 242.83 174.00 243.00 C 164.48 243.17 152.83 245.38 149.00 235.00
C 146.59 228.48 148.29 219.38 148.00 212.00 C 147.71 204.62 147.37 195.58 149.00 189.00
C 150.59 182.58 154.04 184.32 157.00 180.00
C 158.02 177.81 157.49 172.12 158.00 170.00
C 161.39 155.90 168.73 143.11 184.00 140.00
C 189.86 138.02 193.21 138.24 199.00 140.00 Z"/>
</g>
<g fill="None" fill-opacity="0.0" stroke="#6F6E6E" stroke-opacity="1.00" stroke-width="0.3"><path d="
M 161.00 5.00 
C 169.36 3.96 177.65 4.07 186.00 5.00
C 177.74 3.08 169.32 2.84 161.00 5.00 Z"/>
</g>
<g fill="None" fill-opacity="0.0" stroke="#F5F5F5" stroke-opacity="1.00" stroke-width="0.3"><path d="
M 161.00 5.00 
C 126.90 8.12 95.74 34.66 84.00 67.00
C 71.18 68.33 57.40 72.56 46.75 79.75 C 36.10 86.94 29.70 93.51 21.77 103.77 C 13.84 114.03 10.09 124.42 6.00 137.00 C 1.91 149.58 2.66 168.20 6.00 181.00 C 9.35 193.80 12.46 204.05 21.70 214.30 C 30.93 224.56 20.00 237.64 20.00 251.00
C 20.00 256.00 19.90 261.00 20.00 266.00
C 20.37 284.44 28.54 300.36 39.00 315.00
C 42.75 319.47 48.58 325.30 53.00 329.00
C 63.86 336.76 74.83 343.90 88.00 346.00
C 90.19 346.35 93.20 347.57 95.00 348.00
C 103.14 349.14 112.45 349.68 121.00 349.00
C 124.73 348.33 127.88 345.50 132.00 348.00
C 138.36 351.86 140.40 361.82 147.77 366.23 C 155.14 370.64 160.24 375.17 168.75 378.25 C 177.27 381.32 186.06 384.00 196.00 384.00
C 199.33 384.00 202.67 384.00 206.00 384.00
C 217.62 384.00 232.03 381.15 241.75 375.75 C 251.48 370.36 258.78 365.43 266.75 357.75 C 274.73 350.07 280.85 343.45 285.08 333.08 C 289.30 322.70 303.21 322.24 312.97 317.97 C 322.74 313.71 330.73 308.07 339.00 301.00
C 341.86 298.14 345.31 294.91 348.00 292.00
C 360.71 275.90 368.60 258.64 370.00 238.00
C 370.42 231.78 369.54 225.93 369.00 220.00
C 367.59 204.46 362.00 192.74 353.92 180.08 C 345.84 167.42 362.61 153.67 362.00 139.00 C 361.39 124.33 360.84 104.92 353.26 92.74 C 345.68 80.57 340.54 70.83 329.23 61.77 C 317.92 52.71 307.02 45.85 293.00 43.00
C 290.28 42.45 287.23 40.55 285.00 40.00
C 275.87 38.78 263.35 38.56 254.22 39.22 C 245.09 39.88 237.39 43.32 229.68 46.68 C 221.97 50.03 216.09 53.76 209.25 58.25 C 202.40 62.73 196.44 66.10 189.70 70.70 C 182.96 75.29 176.36 77.99 169.30 82.30 C 162.24 86.60 158.65 90.87 150.08 95.08 C 141.50 99.29 139.29 104.48 139.00 115.00 C 138.71 125.52 142.00 133.67 150.75 126.75 C 159.51 119.84 162.68 119.65 170.30 114.30 C 177.92 108.95 182.83 106.43 190.25 102.25 C 197.68 98.08 202.96 94.25 209.92 89.92 C 216.89 85.59 223.40 82.48 230.10 78.10 C 236.80 73.72 243.58 69.76 252.00 68.00 C 260.42 66.23 271.63 64.90 281.00 66.00
C 283.71 66.32 286.04 68.30 288.00 69.00
C 323.02 78.04 345.82 119.46 333.00 154.00
C 323.60 151.91 315.52 144.06 306.70 139.30 C 297.87 134.55 290.43 128.72 282.23 123.77 C 274.03 118.83 264.50 113.64 256.70 108.30 C 248.90 102.97 234.92 106.75 229.76 114.75 C 224.59 122.75 242.81 127.41 248.75 132.25 C 254.70 137.09 266.05 143.86 273.32 148.68 C 280.60 153.50 290.55 158.54 298.25 163.75 C 305.95 168.96 314.75 174.28 322.00 180.00
C 324.66 182.10 326.86 184.49 329.00 187.00
C 336.29 195.54 341.27 205.14 343.00 216.00
C 345.66 225.39 345.79 237.41 343.00 247.00
C 339.42 271.47 316.76 293.15 294.00 299.00
C 292.76 264.48 296.54 228.68 292.00 195.00
C 285.22 193.88 269.71 175.54 269.00 189.00 C 268.29 202.46 269.31 215.84 269.00 229.00 C 268.69 242.16 269.10 256.26 269.00 269.00 C 268.90 281.74 269.71 296.67 266.98 307.98 C 264.24 319.28 261.14 326.55 254.25 335.25 C 247.35 343.95 240.43 347.42 231.25 352.25 C 222.06 357.07 210.32 362.09 199.00 361.00 C 187.68 359.90 178.24 357.35 168.25 351.75 C 158.26 346.16 152.20 338.24 163.25 333.25 C 174.31 328.26 179.37 322.98 188.92 317.92 C 198.47 312.86 206.19 308.47 214.25 303.25 C 222.32 298.04 233.76 295.96 238.00 287.00
C 239.57 281.82 237.79 273.97 237.00 269.00
C 237.00 267.00 237.00 265.00 237.00 263.00
C 195.97 277.80 168.82 309.83 125.00 323.00 C 81.18 336.17 26.05 283.38 48.00 238.00
C 61.66 244.30 73.37 255.95 86.92 262.08 C 100.48 268.20 111.81 280.83 126.00 285.00
C 128.71 285.38 130.61 284.58 133.00 284.00
C 139.26 281.95 146.74 277.64 150.00 272.00
C 115.68 244.15 75.76 233.30 44.25 201.75 C 12.74 170.19 32.37 98.49 80.00 93.00
C 80.24 103.58 79.68 114.45 80.00 125.00 C 80.32 135.55 79.37 145.46 80.00 156.00 C 80.63 166.54 78.64 176.32 80.00 187.00 C 81.37 197.68 87.72 195.06 96.25 201.75 C 104.77 208.44 107.58 197.26 106.00 187.00 C 104.42 176.74 106.69 166.15 106.00 156.00 C 105.31 145.85 106.26 134.91 106.00 125.00 C 105.74 115.09 106.01 103.39 106.00 94.00 C 105.99 84.61 109.44 76.93 112.02 69.02 C 114.61 61.12 118.29 55.91 124.25 50.25 C 130.21 44.58 134.59 40.17 141.97 36.97 C 149.35 33.78 157.67 30.66 166.00 30.00
C 172.98 28.65 180.52 29.54 186.00 31.00
C 196.54 31.72 205.40 36.11 214.30 41.70 C 223.21 47.29 232.00 37.74 240.00 34.00
C 228.96 16.32 206.04 7.24 186.00 5.00
C 177.65 4.07 169.36 3.96 161.00 5.00 Z"/>
</g>
<g fill="None" fill-opacity="0.0" stroke="#8F9090" stroke-opacity="1.00" stroke-width="0.3"><path d="
M 166.00 30.00 
C 172.69 29.47 179.68 30.12 186.00 31.00
C 180.52 29.54 172.98 28.65 166.00 30.00 Z"/>
</g>
<g fill="None" fill-opacity="0.0" stroke="#7C7C7C" stroke-opacity="1.00" stroke-width="0.3"><path d="
M 293.00 43.00 
C 290.76 42.32 288.03 40.40 285.00 40.00
C 287.23 40.55 290.28 42.45 293.00 43.00 Z"/>
</g>
<g fill="None" fill-opacity="0.0" stroke="#807F80" stroke-opacity="1.00" stroke-width="0.3"><path d="
M 288.00 69.00 
C 286.04 68.30 283.71 66.32 281.00 66.00
C 282.48 66.30 285.82 68.46 288.00 69.00 Z"/>
</g>
<g fill="None" fill-opacity="0.0" stroke="#727272" stroke-opacity="1.00" stroke-width="0.3"><path d="
M 184.00 140.00 
C 189.27 138.93 193.76 139.08 199.00 140.00
C 193.21 138.24 189.86 138.02 184.00 140.00 Z"/>
</g>
<g fill="None" fill-opacity="0.0" stroke="#F6F6F6" stroke-opacity="1.00" stroke-width="0.3"><path d="
M 184.00 140.00 
C 168.73 143.11 161.39 155.90 158.00 170.00
C 157.60 173.43 158.86 177.29 157.00 180.00
C 154.04 184.32 150.59 182.58 149.00 189.00
C 148.10 196.25 148.75 204.71 149.00 212.00 C 149.25 219.29 147.43 227.92 149.00 235.00
C 152.83 245.38 164.48 243.17 174.00 243.00 C 183.52 242.83 197.61 243.45 207.00 243.00 C 216.39 242.55 229.11 246.36 233.07 236.07 C 237.03 225.79 231.43 214.97 234.00 204.00 C 236.57 193.03 231.59 187.44 226.00 180.00
C 223.37 176.50 224.40 173.59 224.00 169.00
C 222.81 155.53 212.00 142.29 199.00 140.00
C 193.76 139.08 189.27 138.93 184.00 140.00
M 208.00 181.00 
C 198.92 179.74 186.77 182.68 178.00 181.00 C 169.23 179.32 174.54 165.61 179.75 160.75 C 184.97 155.89 193.94 152.84 200.70 158.30 C 207.46 163.77 209.20 171.90 208.00 181.00 Z"/>
</g>
<g fill="None" fill-opacity="0.0" stroke="#0B0B0B" stroke-opacity="1.00" stroke-width="0.3"><path d="
M 208.00 181.00 
C 209.20 171.90 207.46 163.77 200.70 158.30 C 193.94 152.84 184.97 155.89 179.75 160.75 C 174.54 165.61 169.23 179.32 178.00 181.00 C 186.77 182.68 198.92 179.74 208.00 181.00 Z"/>
</g>
<g fill="None" fill-opacity="0.0" stroke="#656666" stroke-opacity="1.00" stroke-width="0.3"><path d="
M 226.00 180.00 
C 224.45 177.06 224.59 171.90 224.00 169.00
C 224.40 173.59 223.37 176.50 226.00 180.00 Z"/>
</g>
<g fill="None" fill-opacity="0.0" stroke="#707070" stroke-opacity="1.00" stroke-width="0.3"><path d="
M 157.00 180.00 
C 158.86 177.29 157.60 173.43 158.00 170.00
C 157.49 172.12 158.02 177.81 157.00 180.00 Z"/>
</g>
<g fill="None" fill-opacity="0.0" stroke="#6D6F6D" stroke-opacity="1.00" stroke-width="0.3"><path d="
M 329.00 187.00 
C 326.86 184.49 324.66 182.10 322.00 180.00
C 324.22 182.05 326.80 184.80 329.00 187.00 Z"/>
</g>
<g fill="None" fill-opacity="0.0" stroke="#606061" stroke-opacity="1.00" stroke-width="0.3"><path d="
M 149.00 235.00 
C 147.43 227.92 149.25 219.29 149.00 212.00 C 148.75 204.71 148.10 196.25 149.00 189.00
C 147.37 195.58 147.71 204.62 148.00 212.00 C 148.29 219.38 146.59 228.48 149.00 235.00 Z"/>
</g>
<g fill="None" fill-opacity="0.0" stroke="#616261" stroke-opacity="1.00" stroke-width="0.3"><path d="
M 343.00 247.00 
C 345.79 237.41 345.66 225.39 343.00 216.00
C 344.56 225.79 344.66 237.18 343.00 247.00 Z"/>
</g>
<g fill="None" fill-opacity="0.0" stroke="#878787" stroke-opacity="1.00" stroke-width="0.3"><path d="
M 370.00 238.00 
C 371.15 231.59 370.35 225.82 369.00 220.00
C 369.54 225.93 370.42 231.78 370.00 238.00 Z"/>
</g>
<g fill="None" fill-opacity="0.0" stroke="#707070" stroke-opacity="1.00" stroke-width="0.3"><path d="
M 20.00 266.00 
C 19.90 261.00 20.00 256.00 20.00 251.00
C 19.55 255.69 19.42 261.22 20.00 266.00 Z"/>
</g>
<g fill="None" fill-opacity="0.0" stroke="#666766" stroke-opacity="1.00" stroke-width="0.3"><path d="
M 238.00 287.00 
C 240.64 281.41 238.47 274.27 237.00 269.00
C 237.79 273.97 239.57 281.82 238.00 287.00 Z"/>
</g>
<g fill="None" fill-opacity="0.0" stroke="#7F7F7F" stroke-opacity="1.00" stroke-width="0.3"><path d="
M 126.00 285.00 
C 129.72 286.09 129.83 285.23 133.00 284.00
C 130.61 284.58 128.71 285.38 126.00 285.00 Z"/>
</g>
<g fill="None" fill-opacity="0.0" stroke="#787878" stroke-opacity="1.00" stroke-width="0.3"><path d="
M 339.00 301.00 
C 342.18 298.28 345.35 295.35 348.00 292.00
C 345.31 294.91 341.86 298.14 339.00 301.00 Z"/>
</g>
<g fill="None" fill-opacity="0.0" stroke="#848484" stroke-opacity="1.00" stroke-width="0.3"><path d="
M 53.00 329.00 
C 48.58 325.30 42.75 319.47 39.00 315.00
C 42.50 319.90 48.05 325.46 53.00 329.00 Z"/>
</g>
<g fill="None" fill-opacity="0.0" stroke="#6E6F6F" stroke-opacity="1.00" stroke-width="0.3"><path d="
M 95.00 348.00 
C 93.20 347.57 90.19 346.35 88.00 346.00
C 90.07 346.59 92.04 347.59 95.00 348.00 Z"/>
</g>
<g fill="None" fill-opacity="0.0" stroke="#767676" stroke-opacity="1.00" stroke-width="0.3"><path d="
M 121.00 349.00 
C 124.17 348.75 128.74 346.68 132.00 348.00
C 127.88 345.50 124.73 348.33 121.00 349.00 Z"/>
</g>
<g fill="None" fill-opacity="0.0" stroke="#7C7D7D" stroke-opacity="1.00" stroke-width="0.3"><path d="
M 206.00 384.00 
C 202.67 384.00 199.33 384.00 196.00 384.00
C 199.08 384.30 202.86 384.30 206.00 384.00 Z"/>
</g>
<g fill="#0B0B0B" fill-opacity="1.00" stroke="None">
<path d="
M 0.00 387.00 
L 374.00 387.00
L 374.00 0.00
L 0.00 0.00
L 0.00 387.00
M 186.00 5.00 
C 206.04 7.24 228.96 16.32 240.00 34.00
C 232.00 37.74 223.21 47.29 214.30 41.70 C 205.40 36.11 196.54 31.72 186.00 31.00
C 179.68 30.12 172.69 29.47 166.00 30.00
C 157.67 30.66 149.35 33.78 141.97 36.97 C 134.59 40.17 130.21 44.58 124.25 50.25 C 118.29 55.91 114.61 61.12 112.02 69.02 C 109.44 76.93 105.99 84.61 106.00 94.00 C 106.01 103.39 105.74 115.09 106.00 125.00 C 106.26 134.91 105.31 145.85 106.00 156.00 C 106.69 166.15 104.42 176.74 106.00 187.00 C 107.58 197.26 104.77 208.44 96.25 201.75 C 87.72 195.06 81.37 197.68 80.00 187.00 C 78.64 176.32 80.63 166.54 80.00 156.00 C 79.37 145.46 80.32 135.55 80.00 125.00 C 79.68 114.45 80.24 103.58 80.00 93.00
C 32.37 98.49 12.74 170.19 44.25 201.75 C 75.76 233.30 115.68 244.15 150.00 272.00
C 146.74 277.64 139.26 281.95 133.00 284.00
C 129.83 285.23 129.72 286.09 126.00 285.00
C 111.81 280.83 100.48 268.20 86.92 262.08 C 73.37 255.95 61.66 244.30 48.00 238.00
C 26.05 283.38 81.18 336.17 125.00 323.00 C 168.82 309.83 195.97 277.80 237.00 263.00
C 237.00 265.00 237.00 267.00 237.00 269.00
C 238.47 274.27 240.64 281.41 238.00 287.00
C 233.76 295.96 222.32 298.04 214.25 303.25 C 206.19 308.47 198.47 312.86 188.92 317.92 C 179.37 322.98 174.31 328.26 163.25 333.25 C 152.20 338.24 158.26 346.16 168.25 351.75 C 178.24 357.35 187.68 359.90 199.00 361.00 C 210.32 362.09 222.06 357.07 231.25 352.25 C 240.43 347.42 247.35 343.95 254.25 335.25 C 261.14 326.55 264.24 319.28 266.98 307.98 C 269.71 296.67 268.90 281.74 269.00 269.00 C 269.10 256.26 268.69 242.16 269.00 229.00 C 269.31 215.84 268.29 202.46 269.00 189.00 C 269.71 175.54 285.22 193.88 292.00 195.00
C 296.54 228.68 292.76 264.48 294.00 299.00
C 316.76 293.15 339.42 271.47 343.00 247.00
C 344.66 237.18 344.56 225.79 343.00 216.00
C 341.27 205.14 336.29 195.54 329.00 187.00
C 326.80 184.80 324.22 182.05 322.00 180.00
C 314.75 174.28 305.95 168.96 298.25 163.75 C 290.55 158.54 280.60 153.50 273.32 148.68 C 266.05 143.86 254.70 137.09 248.75 132.25 C 242.81 127.41 224.59 122.75 229.76 114.75 C 234.92 106.75 248.90 102.97 256.70 108.30 C 264.50 113.64 274.03 118.83 282.23 123.77 C 290.43 128.72 297.87 134.55 306.70 139.30 C 315.52 144.06 323.60 151.91 333.00 154.00
C 345.82 119.46 323.02 78.04 288.00 69.00
C 285.82 68.46 282.48 66.30 281.00 66.00
C 271.63 64.90 260.42 66.23 252.00 68.00 C 243.58 69.76 236.80 73.72 230.10 78.10 C 223.40 82.48 216.89 85.59 209.92 89.92 C 202.96 94.25 197.68 98.08 190.25 102.25 C 182.83 106.43 177.92 108.95 170.30 114.30 C 162.68 119.65 159.51 119.84 150.75 126.75 C 142.00 133.67 138.71 125.52 139.00 115.00 C 139.29 104.48 141.50 99.29 150.08 95.08 C 158.65 90.87 162.24 86.60 169.30 82.30 C 176.36 77.99 182.96 75.29 189.70 70.70 C 196.44 66.10 202.40 62.73 209.25 58.25 C 216.09 53.76 221.97 50.03 229.68 46.68 C 237.39 43.32 245.09 39.88 254.22 39.22 C 263.35 38.56 275.87 38.78 285.00 40.00
C 288.03 40.40 290.76 42.32 293.00 43.00
C 307.02 45.85 317.92 52.71 329.23 61.77 C 340.54 70.83 345.68 80.57 353.26 92.74 C 360.84 104.92 361.39 124.33 362.00 139.00 C 362.61 153.67 345.84 167.42 353.92 180.08 C 362.00 192.74 367.59 204.46 369.00 220.00
C 370.35 225.82 371.15 231.59 370.00 238.00
C 368.60 258.64 360.71 275.90 348.00 292.00
C 345.35 295.35 342.18 298.28 339.00 301.00
C 330.73 308.07 322.74 313.71 312.97 317.97 C 303.21 322.24 289.30 322.70 285.08 333.08 C 280.85 343.45 274.73 350.07 266.75 357.75 C 258.78 365.43 251.48 370.36 241.75 375.75 C 232.03 381.15 217.62 384.00 206.00 384.00
C 202.86 384.30 199.08 384.30 196.00 384.00
C 186.06 384.00 177.27 381.32 168.75 378.25 C 160.24 375.17 155.14 370.64 147.77 366.23 C 140.40 361.82 138.36 351.86 132.00 348.00
C 128.74 346.68 124.17 348.75 121.00 349.00
C 112.45 349.68 103.14 349.14 95.00 348.00
C 92.04 347.59 90.07 346.59 88.00 346.00
C 74.83 343.90 63.86 336.76 53.00 329.00
C 48.05 325.46 42.50 319.90 39.00 315.00
C 28.54 300.36 20.37 284.44 20.00 266.00
C 19.42 261.22 19.55 255.69 20.00 251.00
C 20.00 237.64 30.93 224.56 21.70 214.30 C 12.46 204.05 9.35 193.80 6.00 181.00 C 2.66 168.20 1.91 149.58 6.00 137.00 C 10.09 124.42 13.84 114.03 21.77 103.77 C 29.70 93.51 36.10 86.94 46.75 79.75 C 57.40 72.56 71.18 68.33 84.00 67.00
C 95.74 34.66 126.90 8.12 161.00 5.00
C 169.32 2.84 177.74 3.08 186.00 5.00
M 199.00 140.00 
C 212.00 142.29 222.81 155.53 224.00 169.00
C 224.59 171.90 224.45 177.06 226.00 180.00
C 231.59 187.44 236.57 193.03 234.00 204.00 C 231.43 214.97 237.03 225.79 233.07 236.07 C 229.11 246.36 216.39 242.55 207.00 243.00 C 197.61 243.45 183.52 242.83 174.00 243.00 C 164.48 243.17 152.83 245.38 149.00 235.00
C 146.59 228.48 148.29 219.38 148.00 212.00 C 147.71 204.62 147.37 195.58 149.00 189.00
C 150.59 182.58 154.04 184.32 157.00 180.00
C 158.02 177.81 157.49 172.12 158.00 170.00
C 161.39 155.90 168.73 143.11 184.00 140.00
C 189.86 138.02 193.21 138.24 199.00 140.00 Z"/>
</g>
<g fill="#6F6E6E" fill-opacity="1.00" stroke="None">
<path d="
M 161.00 5.00 
C 169.36 3.96 177.65 4.07 186.00 5.00
C 177.74 3.08 169.32 2.84 161.00 5.00 Z"/>
</g>
<g fill="#F5F5F5" fill-opacity="1.00" stroke="None">
<path d="
M 161.00 5.00 
C 126.90 8.12 95.74 34.66 84.00 67.00
C 71.18 68.33 57.40 72.56 46.75 79.75 C 36.10 86.94 29.70 93.51 21.77 103.77 C 13.84 114.03 10.09 124.42 6.00 137.00 C 1.91 149.58 2.66 168.20 6.00 181.00 C 9.35 193.80 12.46 204.05 21.70 214.30 C 30.93 224.56 20.00 237.64 20.00 251.00
C 20.00 256.00 19.90 261.00 20.00 266.00
C 20.37 284.44 28.54 300.36 39.00 315.00
C 42.75 319.47 48.58 325.30 53.00 329.00
C 63.86 336.76 74.83 343.90 88.00 346.00
C 90.19 346.35 93.20 347.57 95.00 348.00
C 103.14 349.14 112.45 349.68 121.00 349.00
C 124.73 348.33 127.88 345.50 132.00 348.00
C 138.36 351.86 140.40 361.82 147.77 366.23 C 155.14 370.64 160.24 375.17 168.75 378.25 C 177.27 381.32 186.06 384.00 196.00 384.00
C 199.33 384.00 202.67 384.00 206.00 384.00
C 217.62 384.00 232.03 381.15 241.75 375.75 C 251.48 370.36 258.78 365.43 266.75 357.75 C 274.73 350.07 280.85 343.45 285.08 333.08 C 289.30 322.70 303.21 322.24 312.97 317.97 C 322.74 313.71 330.73 308.07 339.00 301.00
C 341.86 298.14 345.31 294.91 348.00 292.00
C 360.71 275.90 368.60 258.64 370.00 238.00
C 370.42 231.78 369.54 225.93 369.00 220.00
C 367.59 204.46 362.00 192.74 353.92 180.08 C 345.84 167.42 362.61 153.67 362.00 139.00 C 361.39 124.33 360.84 104.92 353.26 92.74 C 345.68 80.57 340.54 70.83 329.23 61.77 C 317.92 52.71 307.02 45.85 293.00 43.00
C 290.28 42.45 287.23 40.55 285.00 40.00
C 275.87 38.78 263.35 38.56 254.22 39.22 C 245.09 39.88 237.39 43.32 229.68 46.68 C 221.97 50.03 216.09 53.76 209.25 58.25 C 202.40 62.73 196.44 66.10 189.70 70.70 C 182.96 75.29 176.36 77.99 169.30 82.30 C 162.24 86.60 158.65 90.87 150.08 95.08 C 141.50 99.29 139.29 104.48 139.00 115.00 C 138.71 125.52 142.00 133.67 150.75 126.75 C 159.51 119.84 162.68 119.65 170.30 114.30 C 177.92 108.95 182.83 106.43 190.25 102.25 C 197.68 98.08 202.96 94.25 209.92 89.92 C 216.89 85.59 223.40 82.48 230.10 78.10 C 236.80 73.72 243.58 69.76 252.00 68.00 C 260.42 66.23 271.63 64.90 281.00 66.00
C 283.71 66.32 286.04 68.30 288.00 69.00
C 323.02 78.04 345.82 119.46 333.00 154.00
C 323.60 151.91 315.52 144.06 306.70 139.30 C 297.87 134.55 290.43 128.72 282.23 123.77 C 274.03 118.83 264.50 113.64 256.70 108.30 C 248.90 102.97 234.92 106.75 229.76 114.75 C 224.59 122.75 242.81 127.41 248.75 132.25 C 254.70 137.09 266.05 143.86 273.32 148.68 C 280.60 153.50 290.55 158.54 298.25 163.75 C 305.95 168.96 314.75 174.28 322.00 180.00
C 324.66 182.10 326.86 184.49 329.00 187.00
C 336.29 195.54 341.27 205.14 343.00 216.00
C 345.66 225.39 345.79 237.41 343.00 247.00
C 339.42 271.47 316.76 293.15 294.00 299.00
C 292.76 264.48 296.54 228.68 292.00 195.00
C 285.22 193.88 269.71 175.54 269.00 189.00 C 268.29 202.46 269.31 215.84 269.00 229.00 C 268.69 242.16 269.10 256.26 269.00 269.00 C 268.90 281.74 269.71 296.67 266.98 307.98 C 264.24 319.28 261.14 326.55 254.25 335.25 C 247.35 343.95 240.43 347.42 231.25 352.25 C 222.06 357.07 210.32 362.09 199.00 361.00 C 187.68 359.90 178.24 357.35 168.25 351.75 C 158.26 346.16 152.20 338.24 163.25 333.25 C 174.31 328.26 179.37 322.98 188.92 317.92 C 198.47 312.86 206.19 308.47 214.25 303.25 C 222.32 298.04 233.76 295.96 238.00 287.00
C 239.57 281.82 237.79 273.97 237.00 269.00
C 237.00 267.00 237.00 265.00 237.00 263.00
C 195.97 277.80 168.82 309.83 125.00 323.00 C 81.18 336.17 26.05 283.38 48.00 238.00
C 61.66 244.30 73.37 255.95 86.92 262.08 C 100.48 268.20 111.81 280.83 126.00 285.00
C 128.71 285.38 130.61 284.58 133.00 284.00
C 139.26 281.95 146.74 277.64 150.00 272.00
C 115.68 244.15 75.76 233.30 44.25 201.75 C 12.74 170.19 32.37 98.49 80.00 93.00
C 80.24 103.58 79.68 114.45 80.00 125.00 C 80.32 135.55 79.37 145.46 80.00 156.00 C 80.63 166.54 78.64 176.32 80.00 187.00 C 81.37 197.68 87.72 195.06 96.25 201.75 C 104.77 208.44 107.58 197.26 106.00 187.00 C 104.42 176.74 106.69 166.15 106.00 156.00 C 105.31 145.85 106.26 134.91 106.00 125.00 C 105.74 115.09 106.01 103.39 106.00 94.00 C 105.99 84.61 109.44 76.93 112.02 69.02 C 114.61 61.12 118.29 55.91 124.25 50.25 C 130.21 44.58 134.59 40.17 141.97 36.97 C 149.35 33.78 157.67 30.66 166.00 30.00
C 172.98 28.65 180.52 29.54 186.00 31.00
C 196.54 31.72 205.40 36.11 214.30 41.70 C 223.21 47.29 232.00 37.74 240.00 34.00
C 228.96 16.32 206.04 7.24 186.00 5.00
C 177.65 4.07 169.36 3.96 161.00 5.00 Z"/>
</g>
<g fill="#8F9090" fill-opacity="1.00" stroke="None">
<path d="
M 166.00 30.00 
C 172.69 29.47 179.68 30.12 186.00 31.00
C 180.52 29.54 172.98 28.65 166.00 30.00 Z"/>
</g>
<g fill="#7C7C7C" fill-opacity="1.00" stroke="None">
<path d="
M 293.00 43.00 
C 290.76 42.32 288.03 40.40 285.00 40.00
C 287.23 40.55 290.28 42.45 293.00 43.00 Z"/>
</g>
<g fill="#807F80" fill-opacity="1.00" stroke="None">
<path d="
M 288.00 69.00 
C 286.04 68.30 283.71 66.32 281.00 66.00
C 282.48 66.30 285.82 68.46 288.00 69.00 Z"/>
</g>
<g fill="#727272" fill-opacity="1.00" stroke="None">
<path d="
M 184.00 140.00 
C 189.27 138.93 193.76 139.08 199.00 140.00
C 193.21 138.24 189.86 138.02 184.00 140.00 Z"/>
</g>
<g fill="#F6F6F6" fill-opacity="1.00" stroke="None">
<path d="
M 184.00 140.00 
C 168.73 143.11 161.39 155.90 158.00 170.00
C 157.60 173.43 158.86 177.29 157.00 180.00
C 154.04 184.32 150.59 182.58 149.00 189.00
C 148.10 196.25 148.75 204.71 149.00 212.00 C 149.25 219.29 147.43 227.92 149.00 235.00
C 152.83 245.38 164.48 243.17 174.00 243.00 C 183.52 242.83 197.61 243.45 207.00 243.00 C 216.39 242.55 229.11 246.36 233.07 236.07 C 237.03 225.79 231.43 214.97 234.00 204.00 C 236.57 193.03 231.59 187.44 226.00 180.00
C 223.37 176.50 224.40 173.59 224.00 169.00
C 222.81 155.53 212.00 142.29 199.00 140.00
C 193.76 139.08 189.27 138.93 184.00 140.00
M 208.00 181.00 
C 198.92 179.74 186.77 182.68 178.00 181.00 C 169.23 179.32 174.54 165.61 179.75 160.75 C 184.97 155.89 193.94 152.84 200.70 158.30 C 207.46 163.77 209.20 171.90 208.00 181.00 Z"/>
</g>
<g fill="#0B0B0B" fill-opacity="1.00" stroke="None">
<path d="
M 208.00 181.00 
C 209.20 171.90 207.46 163.77 200.70 158.30 C 193.94 152.84 184.97 155.89 179.75 160.75 C 174.54 165.61 169.23 179.32 178.00 181.00 C 186.77 182.68 198.92 179.74 208.00 181.00 Z"/>
</g>
<g fill="#656666" fill-opacity="1.00" stroke="None">
<path d="
M 226.00 180.00 
C 224.45 177.06 224.59 171.90 224.00 169.00
C 224.40 173.59 223.37 176.50 226.00 180.00 Z"/>
</g>
<g fill="#707070" fill-opacity="1.00" stroke="None">
<path d="
M 157.00 180.00 
C 158.86 177.29 157.60 173.43 158.00 170.00
C 157.49 172.12 158.02 177.81 157.00 180.00 Z"/>
</g>
<g fill="#6D6F6D" fill-opacity="1.00" stroke="None">
<path d="
M 329.00 187.00 
C 326.86 184.49 324.66 182.10 322.00 180.00
C 324.22 182.05 326.80 184.80 329.00 187.00 Z"/>
</g>
<g fill="#606061" fill-opacity="1.00" stroke="None">
<path d="
M 149.00 235.00 
C 147.43 227.92 149.25 219.29 149.00 212.00 C 148.75 204.71 148.10 196.25 149.00 189.00
C 147.37 195.58 147.71 204.62 148.00 212.00 C 148.29 219.38 146.59 228.48 149.00 235.00 Z"/>
</g>
<g fill="#616261" fill-opacity="1.00" stroke="None">
<path d="
M 343.00 247.00 
C 345.79 237.41 345.66 225.39 343.00 216.00
C 344.56 225.79 344.66 237.18 343.00 247.00 Z"/>
</g>
<g fill="#878787" fill-opacity="1.00" stroke="None">
<path d="
M 370.00 238.00 
C 371.15 231.59 370.35 225.82 369.00 220.00
C 369.54 225.93 370.42 231.78 370.00 238.00 Z"/>
</g>
<g fill="#707070" fill-opacity="1.00" stroke="None">
<path d="
M 20.00 266.00 
C 19.90 261.00 20.00 256.00 20.00 251.00
C 19.55 255.69 19.42 261.22 20.00 266.00 Z"/>
</g>
<g fill="#666766" fill-opacity="1.00" stroke="None">
<path d="
M 238.00 287.00 
C 240.64 281.41 238.47 274.27 237.00 269.00
C 237.79 273.97 239.57 281.82 238.00 287.00 Z"/>
</g>
<g fill="#7F7F7F" fill-opacity="1.00" stroke="None">
<path d="
M 126.00 285.00 
C 129.72 286.09 129.83 285.23 133.00 284.00
C 130.61 284.58 128.71 285.38 126.00 285.00 Z"/>
</g>
<g fill="#787878" fill-opacity="1.00" stroke="None">
<path d="
M 339.00 301.00 
C 342.18 298.28 345.35 295.35 348.00 292.00
C 345.31 294.91 341.86 298.14 339.00 301.00 Z"/>
</g>
<g fill="#848484" fill-opacity="1.00" stroke="None">
<path d="
M 53.00 329.00 
C 48.58 325.30 42.75 319.47 39.00 315.00
C 42.50 319.90 48.05 325.46 53.00 329.00 Z"/>
</g>
<g fill="#6E6F6F" fill-opacity="1.00" stroke="None">
<path d="
M 95.00 348.00 
C 93.20 347.57 90.19 346.35 88.00 346.00
C 90.07 346.59 92.04 347.59 95.00 348.00 Z"/>
</g>
<g fill="#767676" fill-opacity="1.00" stroke="None">
<path d="
M 121.00 349.00 
C 124.17 348.75 128.74 346.68 132.00 348.00
C 127.88 345.50 124.73 348.33 121.00 349.00 Z"/>
</g>
<g fill="#7C7D7D" fill-opacity="1.00" stroke="None">
<path d="
M 206.00 384.00 
C 202.67 384.00 199.33 384.00 196.00 384.00
C 199.08 384.30 202.86 384.30 206.00 384.00 Z"/>
</g>
</svg>